HIERARCHY
ROOT joint_Root
{
	OFFSET 0.0 0.0 0.0
	CHANNELS 6 Xposition Yposition Zposition Zrotation Xrotation Yrotation 
	JOINT Hips
	{
		OFFSET -0.726466 93.3139 -2.00062
		CHANNELS 6 Xposition Yposition Zposition Zrotation Xrotation Yrotation 
		JOINT Spine
		{
			OFFSET 15.7357 0.0 0.0
			CHANNELS 6 Xposition Yposition Zposition Zrotation Xrotation Yrotation 
			JOINT Chest
			{
				OFFSET 8.98455 -0.406207 0.0
				CHANNELS 6 Xposition Yposition Zposition Zrotation Xrotation Yrotation 
				JOINT Neck
				{
					OFFSET 16.3773 0.0 0.0
					CHANNELS 6 Xposition Yposition Zposition Zrotation Xrotation Yrotation 
					JOINT Head
					{
						OFFSET 6.45672 0.0 0.0
						CHANNELS 6 Xposition Yposition Zposition Zrotation Xrotation Yrotation 
						End Site
						{
							OFFSET 0.0 0.0 0.0
						}
					}
				}
				JOINT Shoulder_L
				{
					OFFSET 12.9942 -0.242716 4.98039
					CHANNELS 6 Xposition Yposition Zposition Zrotation Xrotation Yrotation 
					JOINT UpperArm_L
					{
						OFFSET 5.34809 0.0 0.0
						CHANNELS 6 Xposition Yposition Zposition Zrotation Xrotation Yrotation 
						JOINT LowerArm_L
						{
							OFFSET 24.3286 1.87007e-05 0.0
							CHANNELS 6 Xposition Yposition Zposition Zrotation Xrotation Yrotation 
							JOINT Hand_L
							{
								OFFSET 22.2916 0.0 0.0
								CHANNELS 6 Xposition Yposition Zposition Zrotation Xrotation Yrotation 
								End Site
								{
									OFFSET 0.0 0.0 0.0
								}
							}
						}
					}
				}
				JOINT Shoulder_R
				{
					OFFSET 12.9945 -0.242716 -4.98039
					CHANNELS 6 Xposition Yposition Zposition Zrotation Xrotation Yrotation 
					JOINT UpperArm_R
					{
						OFFSET -5.34813 0.0 0.0
						CHANNELS 6 Xposition Yposition Zposition Zrotation Xrotation Yrotation 
						JOINT LowerArm_R
						{
							OFFSET -24.3289 0.000322201 0.0
							CHANNELS 6 Xposition Yposition Zposition Zrotation Xrotation Yrotation 
							JOINT Hand_R
							{
								OFFSET -22.2915 -0.000108084 0.0
								CHANNELS 6 Xposition Yposition Zposition Zrotation Xrotation Yrotation 
								End Site
								{
									OFFSET 0.0 0.0 0.0
								}
							}
						}
					}
				}
			}
		}
		JOINT UpperLeg_L
		{
			OFFSET -2.19248 -6.46944 0.0
			CHANNELS 6 Xposition Yposition Zposition Zrotation Xrotation Yrotation 
			JOINT LowerLeg_L
			{
				OFFSET 39.0811 0.0 -1.23785e-05
				CHANNELS 6 Xposition Yposition Zposition Zrotation Xrotation Yrotation 
				JOINT Foot_L
				{
					OFFSET 40.9854 0.0 -1.26872e-05
					CHANNELS 6 Xposition Yposition Zposition Zrotation Xrotation Yrotation 
					JOINT Toes_L
					{
						OFFSET 11.7543 0.0 0.0
						CHANNELS 6 Xposition Yposition Zposition Zrotation Xrotation Yrotation 
						End Site
						{
							OFFSET 0.0 0.0 0.0
						}
					}
				}
			}
		}
		JOINT UpperLeg_R
		{
			OFFSET -2.19251 6.46944 0.0
			CHANNELS 6 Xposition Yposition Zposition Zrotation Xrotation Yrotation 
			JOINT LowerLeg_R
			{
				OFFSET -39.0811 -0.00228153 -0.0401928
				CHANNELS 6 Xposition Yposition Zposition Zrotation Xrotation Yrotation 
				JOINT Foot_R
				{
					OFFSET -40.9854 0.0 0.0
					CHANNELS 6 Xposition Yposition Zposition Zrotation Xrotation Yrotation 
					JOINT Toes_R
					{
						OFFSET -11.7543 0.0 0.0
						CHANNELS 6 Xposition Yposition Zposition Zrotation Xrotation Yrotation 
						End Site
						{
							OFFSET 0.0 0.0 0.0
						}
					}
				}
			}
		}
	}
}
MOTION
Frames:	5
Frame Time:	0.0333333
0.000000 0.000000 0.000000 0.000000 0.000000 -0.000000 -0.791706 92.224500 -0.712667 88.292700 -2.517200 5.201850 15.735700 0.000005 -0.000001 78.289500 85.450900 -76.709100 8.984550 -0.406207 -0.000000 1.172330 -1.936730 3.178260 16.377300 -0.000001 -0.000001 5.535410 -1.690760 -0.789588 6.456720 -0.000001 -0.000000 2.125520 -0.174247 4.709110 12.994200 -0.242716 4.980390 -87.431600 -7.354080 -70.687100 5.348090 -0.000007 -0.000001 -83.080500 -31.986300 -87.871900 24.328600 0.000019 0.000005 6.421760 0.180390 -88.397800 22.291600 -0.000001 0.000005 21.277700 5.592230 -10.888200 12.994500 -0.242716 -4.980390 87.663000 6.823210 -71.042200 -5.348130 -0.000001 -0.000004 -64.742300 36.669200 -14.562300 -24.328900 0.000322 -0.000009 2.248060 8.056040 -15.655400 -22.291500 -0.000108 -0.000004 10.115900 5.404950 -3.098810 -2.192480 -6.469440 -0.000000 -175.527000 -7.069070 -1.265600 39.081100 -0.000007 -0.000012 -0.113659 0.267274 23.037900 40.985400 -0.000006 -0.000013 -0.486542 2.490150 -66.654700 11.754300 -0.000000 0.000003 -0.000050 -0.000565 -16.599500 -2.192510 6.469440 -0.000001 179.320000 11.740700 -179.900000 -39.081100 -0.002282 -0.040193 -0.041375 0.118365 20.686800 -40.985400 0.000008 0.000006 3.417570 7.636490 -66.072500 -11.754300 -0.000006 -0.000006 -0.007756 -0.086025 -20.075900
0.000000 0.000000 0.000000 0.000000 0.000000 -0.000000 -0.798317 92.231400 -0.773311 88.301800 -2.541570 5.204750 15.735700 0.000005 -0.000001 78.448900 85.445000 -76.886300 8.984550 -0.406207 -0.000000 1.188320 -1.913060 3.142730 16.377300 -0.000001 -0.000001 5.485770 -1.669390 -0.791763 6.456720 -0.000001 -0.000000 2.135930 -0.151394 4.670890 12.994200 -0.242716 4.980390 -87.422000 -7.375420 -70.671700 5.348090 -0.000007 -0.000001 -83.074800 -32.110400 -87.610500 24.328600 0.000019 0.000005 6.405510 0.166755 -88.515100 22.291600 -0.000001 0.000005 21.176000 5.593570 -10.965400 12.994500 -0.242716 -4.980390 87.663400 6.841090 -71.090500 -5.348130 -0.000001 -0.000004 -64.866400 36.751500 -14.487100 -24.328900 0.000322 -0.000009 2.228320 7.908860 -15.797400 -22.291500 -0.000108 -0.000004 10.059400 5.406350 -3.144880 -2.192480 -6.469440 -0.000000 -175.533000 -7.067130 -1.295440 39.081100 -0.000007 -0.000012 -0.114524 0.269581 23.017000 40.985400 -0.000006 -0.000013 -0.493421 2.481580 -66.600300 11.754300 -0.000000 0.000003 -0.000039 -0.000459 -16.595400 -2.192510 6.469440 -0.000001 179.338000 11.757700 -179.949000 -39.081100 -0.002282 -0.040193 -0.039779 0.114111 20.691200 -40.985400 0.000008 0.000006 3.442920 7.621720 -66.029300 -11.754300 -0.000006 -0.000006 -0.007880 -0.087051 -20.117800
0.000000 0.000000 0.000000 0.000000 0.000000 -0.000000 -0.817602 92.236500 -0.838435 88.286100 -2.528420 5.179090 15.735700 0.000005 -0.000001 78.519400 85.442100 -76.964300 8.984550 -0.406207 -0.000000 1.195950 -1.902700 3.127650 16.377300 -0.000001 -0.000001 5.426790 -1.661140 -0.786525 6.456720 -0.000001 -0.000000 2.097120 -0.161011 4.631950 12.994200 -0.242716 4.980390 -87.420800 -7.388920 -70.695900 5.348090 -0.000007 -0.000001 -83.022600 -32.307700 -87.211000 24.328600 0.000019 0.000005 6.272420 0.130159 -88.816300 22.291600 -0.000001 0.000005 21.302600 5.593140 -10.940600 12.994500 -0.242716 -4.980390 87.661200 6.853310 -71.105700 -5.348130 -0.000001 -0.000004 -64.952800 36.905600 -14.446200 -24.328900 0.000322 -0.000009 2.216700 7.828250 -15.871800 -22.291500 -0.000108 -0.000004 9.944580 5.407750 -3.190860 -2.192480 -6.469440 -0.000000 -175.513000 -7.068370 -1.394060 39.081100 -0.000007 -0.000012 -0.114220 0.268536 23.042200 40.985400 -0.000006 -0.000013 -0.497067 2.504700 -66.551900 11.754300 -0.000000 0.000003 -0.000055 -0.000617 -16.601500 -2.192510 6.469440 -0.000001 179.397000 11.695300 179.975000 -39.081100 -0.002282 -0.040193 -0.037524 0.108099 20.698500 -40.985400 0.000008 0.000006 3.529510 7.556040 -66.002500 -11.754300 -0.000006 -0.000006 -0.007797 -0.086367 -20.089800
0.000000 0.000000 0.000000 0.000000 0.000000 -0.000000 -0.813193 92.242500 -0.902543 88.322000 -2.505520 5.189500 15.735700 0.000005 -0.000001 78.651600 85.420700 -77.120900 8.984550 -0.406207 -0.000000 1.241280 -1.888470 3.079500 16.377300 -0.000001 -0.000001 5.308190 -1.683690 -0.771728 6.456720 -0.000001 -0.000000 2.089180 -0.176301 4.582520 12.994200 -0.242716 4.980390 -87.445200 -7.338580 -70.745100 5.348090 -0.000007 -0.000001 -82.936300 -32.535500 -86.678100 24.328600 0.000019 0.000005 5.948040 0.063778 -89.388400 22.291600 -0.000001 0.000005 21.344000 5.592540 -10.906400 12.994500 -0.242716 -4.980390 87.652300 6.881720 -71.110800 -5.348130 -0.000001 -0.000004 -65.074500 36.992200 -14.367700 -24.328900 0.000322 -0.000009 2.198610 7.743280 -15.911700 -22.291500 -0.000108 -0.000004 10.007900 5.409270 -3.241080 -2.192480 -6.469440 -0.000000 -175.552000 -7.091230 -1.416300 39.081100 -0.000007 -0.000012 -0.113662 0.267632 23.010900 40.985400 -0.000006 -0.000013 -0.495491 2.499610 -66.489500 11.754300 -0.000000 0.000003 -0.000038 -0.000448 -16.595000 -2.192510 6.469440 -0.000001 179.375000 11.668300 179.920000 -39.081100 -0.002282 -0.040193 -0.037083 0.106773 20.726700 -40.985400 0.000008 0.000006 3.517970 7.511940 -65.965500 -11.754300 -0.000006 -0.000006 -0.007877 -0.087025 -20.116700
0.000000 0.000000 0.000000 0.000000 0.000000 -0.000000 -0.816350 92.251400 -0.969136 88.333500 -2.452330 5.188250 15.735700 0.000005 -0.000001 78.645800 85.392900 -77.129800 8.984550 -0.406207 -0.000000 1.295620 -1.898760 3.051070 16.377300 -0.000001 -0.000001 5.192640 -1.705900 -0.776806 6.456720 -0.000001 -0.000000 1.962250 -0.175705 4.561480 12.994200 -0.242716 4.980390 -87.459600 -7.314920 -70.788100 5.348090 -0.000007 -0.000001 -82.684200 -32.840400 -85.708900 24.328600 0.000019 0.000005 5.368330 -0.040454 -90.431700 22.291600 -0.000001 0.000005 21.395900 5.591070 -10.822600 12.994500 -0.242716 -4.980390 87.641100 6.917170 -71.116800 -5.348130 -0.000001 -0.000004 -65.166200 37.070300 -14.297500 -24.328900 0.000322 -0.000009 2.182730 7.685450 -15.914700 -22.291500 -0.000108 -0.000004 9.946550 5.408120 -3.203210 -2.192480 -6.469440 -0.000000 -175.573000 -7.031510 -1.451310 39.081100 -0.000007 -0.000012 -0.112087 0.264362 22.976500 40.985400 -0.000006 -0.000013 -0.490909 2.518990 -66.427100 11.754300 -0.000000 0.000003 -0.000051 -0.000578 -16.600000 -2.192510 6.469440 -0.000001 179.404000 11.582900 179.875000 -39.081100 -0.002282 -0.040193 -0.035335 0.102189 20.720100 -40.985400 0.000008 0.000006 3.567800 7.381800 -65.926000 -11.754300 -0.000006 -0.000006 -0.007555 -0.084361 -20.007900
